<svg id="visual" viewBox="0 0 900 600" width="900" height="600" xmlns="http://www.w3.org/2000/svg" xmlns:xlink="http://www.w3.org/1999/xlink" version="1.1"><rect x="0" y="0" width="900" height="600" fill="#1d1d20"></rect><defs><linearGradient id="grad1_0" x1="33.3%" y1="0%" x2="100%" y2="100%"><stop offset="20%" stop-color="#1d1d20" stop-opacity="1"></stop><stop offset="80%" stop-color="#1d1d20" stop-opacity="1"></stop></linearGradient></defs><defs><linearGradient id="grad2_0" x1="0%" y1="0%" x2="66.7%" y2="100%"><stop offset="20%" stop-color="#1d1d20" stop-opacity="1"></stop><stop offset="80%" stop-color="#1d1d20" stop-opacity="1"></stop></linearGradient></defs><g transform="translate(900, 0)"><path d="M0 486.7C-58.4 472.4 -116.9 458.1 -181.8 438.8C-246.7 419.6 -318 395.5 -344.2 344.2C-370.4 292.8 -351.5 214.2 -367.7 152.3C-383.9 90.4 -435.3 45.2 -486.7 0L0 0Z" fill="#0d93f2"></path></g><g transform="translate(0, 600)"><path d="M0 -486.7C61.6 -477.8 123.2 -468.9 185.6 -448.1C248 -427.3 311.1 -394.6 344.2 -344.2C377.3 -293.8 380.4 -225.6 399.1 -165.3C417.9 -105 452.3 -52.5 486.7 0L0 0Z" fill="#0d93f2"></path></g></svg>